<svg width="138" height="29" viewBox="0 0 138 29" fill="none" xmlns="http://www.w3.org/2000/svg">
<path d="M136.385 9.84768C137.46 10.7176 136.322 12.0936 135.373 11.3977C134.202 10.6544 131.545 10.3064 131.213 11.9512C130.786 14.5451 137.666 13.0584 137.555 17.2655C137.445 21.2829 131.624 21.3778 129.442 19.5747C128.92 19.1478 128.936 18.4518 129.22 18.0247C129.631 17.6136 130.09 17.4712 130.628 17.914C131.925 18.7997 135.262 19.464 135.499 17.2181C135.294 14.8772 128.714 16.2849 129.204 11.7931C129.568 8.72474 134.202 8.17111 136.385 9.84768ZM126.009 10.4645V16.19C126.009 22.1053 116.472 22.1053 116.472 16.19V10.4645C116.472 9.04112 118.544 8.9778 118.544 10.4645V16.19C118.544 19.3058 123.937 19.4957 123.937 16.19V10.4645C123.937 9.05683 126.009 8.94613 126.009 10.4645ZM60.7014 9.02529C63.4692 9.16753 66.3636 11.0813 66.3636 14.8299C66.3636 18.5783 63.4692 20.5238 60.7014 20.5238C57.7753 20.6503 54.7386 18.7048 54.7386 14.8299C54.7386 10.939 57.7753 9.02529 60.7014 9.02529ZM74.6359 9.42059C78.6533 9.42059 79.4757 14.7982 76.1227 16.1425L78.2262 18.7048C79.0486 19.9228 77.4037 21.0931 76.4548 19.8911L74.0665 16.4748H71.5833V19.3375C71.5833 20.7135 69.4797 20.761 69.4797 19.3691V10.3855C69.4797 9.83184 69.9068 9.42059 70.4288 9.42059H74.6359ZM41.8635 9.27835C42.3222 9.27835 42.5911 9.54724 42.86 9.84768L46.3395 14.5451L49.9457 9.67365C50.4676 9.0253 51.7488 9.27835 51.7488 10.3696V19.2743C51.7488 19.9701 51.3059 20.3656 50.7998 20.3656C50.2304 20.3656 49.7875 19.9701 49.7875 19.2743V13.4222L47.162 16.7437C46.5926 17.4395 45.8809 17.4395 45.3589 16.7437L43.0023 13.4222V19.2743C43.0023 19.9701 42.4329 20.3656 41.8635 20.3656C41.3574 20.3656 40.9146 19.9701 40.9146 19.2743V10.3696C40.9146 9.54725 41.6105 9.27835 41.8635 9.27835ZM86.1031 9.27835C88.1593 9.27835 90.0098 10.6544 90.0098 13.2957C90.0098 15.7946 88.1593 17.1865 86.1031 17.1865H83.4618V19.2743C83.4618 19.9701 83.0189 20.3656 82.4495 20.3656C81.9276 20.3656 81.374 19.9701 81.374 19.2743V10.3696C81.374 9.84768 81.7853 9.27835 82.4495 9.27835H86.1031ZM101.208 9.42058C101.762 9.42058 102.189 9.83184 102.189 10.4013V19.385C102.189 19.9385 101.762 20.3656 101.208 20.3656C100.639 20.3656 100.133 19.9385 100.133 19.385V15.9212H94.9766V19.385C94.9766 19.9385 94.5654 20.3656 94.0118 20.3656C93.3001 20.3656 92.8888 19.9385 92.8888 19.385V10.4013C92.8888 9.83185 93.3001 9.42058 94.0118 9.42058C94.5654 9.42058 94.9766 9.83184 94.9766 10.4013V13.8493H100.133V10.4013C100.133 9.83185 100.639 9.42058 101.208 9.42058ZM112.217 9.42058C113.672 9.42058 113.64 11.4767 112.217 11.4767H107.662V13.8493H111.647C113.055 13.8493 113.055 15.9212 111.647 15.9212H107.662V18.2936H112.486C113.925 18.2936 114.036 20.3656 112.486 20.3656H106.539C105.985 20.3656 105.558 19.9385 105.558 19.385V10.4013C105.558 9.83185 105.985 9.42058 106.539 9.42058H112.217ZM60.5273 11.0813C58.7559 11.0813 56.8263 12.3309 56.8263 14.8299C56.8263 17.313 58.7559 18.5783 60.5273 18.5783C62.3463 18.5783 64.2917 17.313 64.2917 14.8299C64.2917 12.3309 62.3463 11.0813 60.5273 11.0813ZM86.1031 11.2712H83.4618V15.2095H86.1031C87.1628 15.2095 88.0011 14.2763 88.0011 13.2957C88.0011 12.1886 87.1628 11.2712 86.1031 11.2712ZM74.6359 11.3344H71.5833V14.6558H74.6359C76.692 14.6558 76.8185 11.3344 74.6359 11.3344Z" fill="#3DB5E6"/>
<path d="M28.3691 17.7239C26.8271 23.9189 21.1853 28.3264 14.5405 28.3264C7.86554 28.3264 2.27225 23.6581 0.793457 17.4375C2.57163 17.4375 4.23397 17.4456 5.00571 17.4456C5.36977 17.4456 5.44047 17.4519 5.46154 17.4504C6.04223 17.4218 6.77035 17.2302 7.25475 16.0522L9.10063 11.2236L13.2001 21.0938C13.5686 21.8806 14.1839 21.8248 14.551 21.8248H14.5856C15.3017 21.8248 15.6131 21.5739 15.8854 21.0549L20.5158 11.2976L22.0954 15.695L22.1917 15.9079C22.5257 16.6406 22.7659 17.3642 23.5924 17.4588C23.7628 17.4783 25.7414 17.4437 28.4086 17.4437C28.4086 17.4437 28.4086 17.4608 28.3691 17.7239Z" fill="#3DB5E6"/>
<path d="M28.8219 14.0751C28.8219 14.1489 28.8219 14.3342 28.8204 14.3342H28.8174H24.56L22.0762 7.39596C21.8551 6.87996 21.5226 6.1064 20.5538 6.1064C19.9611 6.1064 19.4255 6.59592 19.1216 7.40377L14.619 17.8332L10.2849 7.46703C9.86069 6.54636 9.56734 6.11336 8.71887 6.11336C8.14269 6.11336 7.71996 6.3256 7.25962 7.41627L4.68714 14.4373L0.4132 14.4328C0.410188 14.326 0.408691 14.2192 0.408691 14.1124C0.408691 6.30766 6.7361 0 14.5408 0C22.3455 0 28.8219 6.27043 28.8219 14.0751Z" fill="#D8292F"/>
</svg>
