<svg width="138" height="19" viewBox="0 0 138 19" fill="none" xmlns="http://www.w3.org/2000/svg">
<path d="M59.9129 11.8482H68.9754L64.1835 4.13874L55.3887 18.0778H51.386L62.0834 1.33402C62.5486 0.657499 63.3237 0.248779 64.1835 0.248779C65.015 0.248779 65.7902 0.643412 66.2412 1.30583L76.9809 18.0778H72.9782L71.0896 14.963H61.9143L59.9129 11.8482ZM101.491 14.963V0.417908H98.0938V16.3865C98.0938 16.8234 98.263 17.2462 98.5871 17.5704C98.9112 17.8946 99.3482 18.0778 99.8274 18.0778H115.317L117.318 14.963H101.491ZM45.2974 12.3556C48.5955 12.3556 51.2733 9.69182 51.2733 6.3938C51.2733 3.09579 48.5955 0.417908 45.2974 0.417908H30.4379V18.0778H33.8333V3.5327H45.0719C46.6505 3.5327 47.9189 4.81525 47.9189 6.3938C47.9189 7.97233 46.6505 9.2549 45.0719 9.2549L35.4964 9.2408L45.6356 18.0778H50.5686L43.7471 12.3556H45.2974ZM9.53651 18.0778C4.66131 18.0778 0.705078 14.1314 0.705078 9.2549C0.705078 4.37834 4.66131 0.417908 9.53651 0.417908H19.8012C24.6777 0.417908 28.6311 4.37834 28.6311 9.2549C28.6311 14.1314 24.6777 18.0778 19.8012 18.0778H9.53651ZM19.5728 14.963C22.7314 14.963 25.2894 12.412 25.2894 9.2549C25.2894 6.09782 22.7314 3.5327 19.5728 3.5327H9.76338C6.6063 3.5327 4.04676 6.09782 4.04676 9.2549C4.04676 12.412 6.6063 14.963 9.76338 14.963H19.5728ZM84.0702 18.0778C79.1936 18.0778 75.2332 14.1314 75.2332 9.2549C75.2332 4.37834 79.1936 0.417908 84.0702 0.417908H96.2616L94.2743 3.5327H84.2957C81.1386 3.5327 78.5735 6.09782 78.5735 9.2549C78.5735 12.412 81.1386 14.963 84.2957 14.963H96.5434L94.5421 18.0778H84.0702ZM125.605 14.963C122.998 14.963 120.785 13.2153 120.109 10.8052H134.626L136.627 7.69045H120.109C120.785 5.29446 122.998 3.5327 125.605 3.5327H135.57L137.585 0.417908H125.38C120.503 0.417908 116.543 4.37834 116.543 9.2549C116.543 14.1314 120.503 18.0778 125.38 18.0778H135.852L137.853 14.963H125.605Z" fill="#EA1B22"/>
</svg>
