<svg width="138" height="22" viewBox="0 0 138 22" fill="none" xmlns="http://www.w3.org/2000/svg">
<path d="M130.325 9.88635V12.7458H132.335V15.5829C132.34 15.8002 132.331 16.0321 132.3 16.2317L132.283 16.3286C132.28 16.3502 132.276 16.3724 132.271 16.3952L132.255 16.4649C132.252 16.4768 132.249 16.4888 132.245 16.5009L132.222 16.5745C132.041 17.0969 131.497 17.7589 130.274 17.7589C128.972 17.7589 128.45 16.9989 128.307 16.4649L128.29 16.3952L128.277 16.3286C128.241 16.1098 128.226 15.8364 128.226 15.5829V6.62205C128.226 6.3403 128.243 6.03488 128.294 5.78607L128.328 5.63487C128.331 5.6244 128.333 5.61376 128.336 5.60296L128.355 5.53637C128.359 5.52499 128.362 5.51347 128.366 5.50184L128.391 5.43065C128.577 4.93556 129.068 4.27616 130.264 4.27616C131.187 4.27616 131.683 4.65218 131.949 5.04082L131.996 5.11375C132.011 5.13805 132.025 5.16231 132.038 5.18644L132.075 5.25836L132.108 5.32899L132.136 5.39777L132.161 5.4642L132.181 5.52772L132.198 5.58781L132.212 5.64394L132.224 5.69558C132.229 5.72126 132.234 5.74852 132.238 5.77686L132.25 5.86463C132.251 5.87963 132.253 5.89478 132.255 5.91001L132.267 6.04765L132.275 6.17965L132.282 6.35963L132.283 6.45186V7.53996H137.221L137.222 6.86262L137.225 6.62037L137.224 6.43259L137.22 6.21395L137.216 6.09624L137.207 5.91276L137.195 5.72481L137.184 5.59915C136.85 2.289 134.362 1.01545 131.334 0.793839L131.132 0.780613L130.928 0.770438C130.825 0.766103 130.722 0.762889 130.619 0.760758L130.411 0.75793C130.377 0.757579 130.342 0.757579 130.307 0.757579L130.099 0.758999C130.065 0.759474 130.03 0.760069 129.995 0.760786L129.789 0.766552L129.585 0.775296L129.381 0.78708L129.18 0.801967C129.113 0.807453 129.046 0.813468 128.98 0.82002L128.782 0.841304C128.749 0.845124 128.717 0.849081 128.684 0.853177L128.489 0.879424C128.037 0.944596 127.602 1.03744 127.189 1.16157L127.014 1.21669C125.101 1.84436 123.71 3.17885 123.425 5.59915L123.395 5.86782L123.375 6.07583L123.356 6.29391L123.341 6.51088C123.332 6.65267 123.326 6.78625 123.326 6.89672L123.326 15.2455L123.328 15.3492L123.332 15.5067L123.337 15.6171L123.344 15.735L123.353 15.8632L123.364 16.0045L123.386 16.2469L123.404 16.4328C123.681 19.5088 126.013 20.8772 128.865 21.2L129.065 21.2209C129.4 21.2528 129.741 21.2708 130.086 21.2759L130.294 21.2774L130.502 21.2759C130.849 21.2708 131.192 21.2528 131.528 21.2209L131.728 21.2C134.59 20.8772 136.907 19.5088 137.188 16.4328L137.211 16.1616L137.228 15.9321L137.243 15.6749L137.252 15.4534L137.26 15.1398V9.88635H130.325ZM96.2784 1.28501H91.3197V15.7896C91.3275 16.0424 91.3197 16.3263 91.2762 16.5345L91.2616 16.5977L91.2435 16.6648C91.2368 16.6879 91.2296 16.7115 91.2216 16.7355L91.1957 16.8091C91.0086 17.3078 90.5321 17.9585 89.392 17.9585C88.3229 17.9585 87.8348 17.3712 87.6303 16.8849L87.6004 16.8091C87.5958 16.7966 87.5913 16.7842 87.5871 16.772L87.5637 16.6998L87.5444 16.6308C87.5415 16.6196 87.5387 16.6085 87.5362 16.5977L87.5225 16.5345C87.4729 16.3263 87.4666 16.0424 87.4729 15.7896V1.28501H82.5157V15.3394L82.5148 15.4524L82.5166 15.65L82.5235 15.9407L82.5371 16.294L82.5466 16.4719L82.553 16.5663L82.5593 16.6358C82.8022 19.236 84.3277 20.5895 86.482 21.1558L86.6656 21.2018C87.0664 21.2975 87.4877 21.3672 87.9255 21.4137L88.1287 21.4336L88.3341 21.4502L88.5417 21.4637C88.6461 21.4696 88.7512 21.4744 88.857 21.4781L89.0696 21.4839L89.2841 21.4868C89.32 21.4871 89.356 21.4871 89.392 21.4871L89.6078 21.4857C89.6436 21.4852 89.6794 21.4846 89.715 21.4839L89.928 21.4781C90.034 21.4744 90.1393 21.4696 90.2438 21.4637L90.4518 21.4502L90.6575 21.4336L90.861 21.4137C93.7612 21.1057 95.9367 19.7854 96.2363 16.6358L96.2403 16.6044L96.2484 16.5219L96.2604 16.3574L96.2711 16.1582L96.277 16.0143L96.2831 15.7935L96.2848 15.65L96.2842 15.5152L96.2811 15.3937C96.2803 15.3748 96.2794 15.3567 96.2784 15.3394V1.28501ZM50.7176 1.28501L48.2441 16.6111L45.772 1.28501H37.7734L37.3492 20.8915H42.2494L42.3821 2.74119L45.7537 20.8915H50.7254L54.1 2.74119L54.2331 20.8915H59.1457L58.7071 1.28501H50.7176ZM21.1029 1.28501L17.4711 20.8915H22.7673L25.5042 2.74119L28.1754 20.8915H33.4348L29.8181 1.28501H21.1029ZM113.608 17.0705L108.991 1.28501H101.715V20.6871H106.528L106.249 4.3965L111.207 20.6871H118.185V1.28501H113.341L113.608 17.0705ZM69.0874 6.38766C69.0003 6.00046 69.0255 5.58908 69.0705 5.37408C69.0833 5.31702 69.0984 5.25949 69.1162 5.20205L69.1449 5.11603C69.3405 4.57248 69.7981 4.06191 70.8475 4.06191C71.9799 4.06191 72.6438 4.76784 72.6438 5.82725V7.02612H77.4775V5.65957C77.4775 2.57568 75.4592 1.38938 73.3025 0.97359L73.125 0.941127L72.9471 0.911996L72.769 0.886056L72.591 0.86317L72.4133 0.843197L72.2361 0.826C72.1772 0.820714 72.1184 0.815868 72.0597 0.811438L71.8843 0.799372L71.7102 0.789664L71.5375 0.782175L71.3665 0.776765L71.1974 0.773296L70.9479 0.771426L70.8379 0.771814L70.6192 0.774934C70.5829 0.775717 70.5467 0.776632 70.5106 0.77768L70.2948 0.785576C70.2231 0.788746 70.1518 0.792458 70.0809 0.79672L69.8692 0.811165C66.9203 1.03674 64.619 2.24804 64.1587 5.08859C64.0225 5.95363 63.9888 6.72149 64.2056 7.70134C64.5468 9.31149 65.8881 10.4573 67.4278 11.4183L67.6661 11.5647C67.7061 11.5889 67.7461 11.613 67.7863 11.6369L68.0281 11.7794L68.2714 11.9195L68.5156 12.0576L68.8821 12.2611L69.845 12.7888L70.0789 12.9185L70.3089 13.0478L70.5342 13.1769L70.7541 13.306C71.8035 13.9305 72.6443 14.5639 72.9469 15.3211C73.1143 15.7709 73.0777 16.338 72.9967 16.6998L72.9829 16.7581C72.9629 16.8451 72.9377 16.9321 72.9061 17.0177L72.8722 17.1027C72.6496 17.623 72.1628 18.0665 71.0932 18.0665C69.8731 18.0665 69.1388 17.3651 69.1388 16.308L69.1373 14.4263H63.9344V15.922C63.9344 19.4326 66.1617 20.9575 68.9512 21.4103L69.1588 21.4419C69.2979 21.4616 69.4382 21.4788 69.5796 21.4936L69.7925 21.5139C70.0418 21.5355 70.294 21.5498 70.5481 21.5573L70.7664 21.5621C70.8028 21.5626 70.8393 21.563 70.8758 21.5633L70.9854 21.5637C71.0584 21.5637 71.1311 21.5632 71.2035 21.5621L71.4198 21.5574C71.4557 21.5563 71.4916 21.5551 71.5273 21.5538L71.741 21.5443C71.8119 21.5405 71.8825 21.5363 71.9527 21.5314L72.1624 21.5153C72.3015 21.5034 72.4392 21.4892 72.5753 21.4728L72.7783 21.4464L72.9788 21.4165C73.0453 21.4059 73.1113 21.3948 73.1769 21.383L73.3723 21.3459C75.7336 20.8728 77.4905 19.5899 77.8433 17.1234C77.8919 16.7555 77.9218 16.4158 77.9379 16.1052L77.9466 15.9025C77.9478 15.8694 77.9487 15.8368 77.9496 15.8044L77.9528 15.6148V15.434L77.9498 15.2621L77.9442 15.0991L77.9363 14.9451C77.9348 14.9202 77.9332 14.8957 77.9316 14.8715L77.9208 14.7312L77.9086 14.6001L77.8952 14.4782L77.8737 14.3128L77.8514 14.1686L77.8223 14.0097L77.8088 13.9447C77.4684 12.2373 75.9736 11.0314 74.313 10.0387L74.0748 9.8983L73.8349 9.76062L73.594 9.62547L73.2324 9.42708L72.7527 9.16967L71.9346 8.73455L71.598 8.55243C71.5612 8.5323 71.5246 8.5122 71.4882 8.49212L71.2728 8.372L71.0635 8.25234C70.0332 7.65495 69.2544 7.06839 69.0874 6.38766ZM5.32371 6.33957C5.23473 5.96902 5.24864 5.57921 5.29429 5.3527L5.31319 5.26789L5.33463 5.18397C5.49793 4.59523 5.9444 3.9884 7.09836 3.9884C8.24512 3.9884 8.92034 4.70113 8.92034 5.76909V6.98257H13.8108V5.60519C13.8108 2.66231 11.98 1.42639 9.93423 0.942931L9.75583 0.902764C9.60679 0.870834 9.45686 0.842709 9.30666 0.818027L9.12633 0.790038L8.94598 0.765215L8.76585 0.743417L8.58617 0.724506C8.52637 0.718668 8.4667 0.713288 8.40717 0.708342L8.2291 0.694786L8.05219 0.683698L7.87667 0.674939L7.70278 0.668369L7.53076 0.663849L7.27675 0.6604H7.19327C7.11996 0.6604 7.04692 0.660913 6.97418 0.661946L6.75688 0.666615C6.61263 0.670781 6.46964 0.677062 6.32802 0.685526L6.11665 0.699867C6.0816 0.702533 6.04664 0.705337 6.01177 0.70828L5.80369 0.727625C5.73471 0.734637 5.66611 0.742215 5.59791 0.750367L5.39454 0.776557C5.22609 0.799833 5.06024 0.826752 4.89724 0.857444L4.70302 0.896094L4.51162 0.938415L4.32315 0.984458C4.26083 1.00043 4.19901 1.01703 4.1377 1.03427L3.95536 1.08791C2.05744 1.67132 0.689691 2.89492 0.344426 5.01809C0.201931 5.89698 0.17751 6.67013 0.383449 7.66081C0.746013 9.37277 2.22473 10.565 3.87906 11.5668L4.12231 11.712C4.16302 11.736 4.20381 11.7599 4.24466 11.7837L4.49044 11.9254L4.86053 12.1339L5.3532 12.4057L6.0799 12.8039L6.43293 13.0004L6.77611 13.1962L6.99835 13.3268C7.03491 13.3485 7.07122 13.3703 7.10726 13.3921L7.32024 13.5231C8.22848 14.092 8.93981 14.6779 9.21439 15.3649C9.39423 15.8116 9.35217 16.3785 9.26719 16.7521L9.25266 16.8125C9.23168 16.8985 9.2059 16.9845 9.17404 17.0692L9.14009 17.1534C8.91164 17.6829 8.42133 18.137 7.33778 18.137C6.11298 18.137 5.38036 17.4235 5.38036 16.3518L5.37356 14.4651H0.112305V15.9643C0.112305 20.1726 3.28519 21.5558 6.79905 21.6597L7.01908 21.6645L7.23985 21.6661L7.45815 21.6646C7.56688 21.663 7.67497 21.6603 7.78236 21.6564L7.99621 21.647C8.10265 21.6414 8.20837 21.6347 8.3133 21.6267L8.5221 21.6091L8.72871 21.5881C8.79721 21.5805 8.86533 21.5724 8.93305 21.5637L9.13502 21.5359C9.20193 21.526 9.26843 21.5156 9.33451 21.5046L9.53144 21.4697C11.9767 21.0119 13.7991 19.7148 14.166 17.1778C14.2165 16.8154 14.2481 16.4801 14.2658 16.1728L14.2755 15.9721L14.2815 15.7798C14.2829 15.7171 14.2837 15.6558 14.284 15.5959L14.2833 15.4205L14.2799 15.2536L14.274 15.0954L14.2659 14.9458L14.256 14.8049L14.2446 14.6728L14.2255 14.4913L14.2049 14.3299L14.177 14.1463L14.1453 13.9684C13.8061 12.2812 12.3559 11.0809 10.7243 10.0937L10.4844 9.95072C10.4442 9.92713 10.404 9.90367 10.3636 9.88031L10.121 9.74153L9.87743 9.60532L9.63351 9.47149L9.38991 9.33983L8.3151 8.76931L7.97139 8.5851L7.74818 8.46339L7.53048 8.34235L7.31892 8.22177C7.28421 8.2017 7.24979 8.18165 7.21565 8.1616L7.01454 8.04136C6.1265 7.50043 5.47441 6.95923 5.32371 6.33957Z" fill="#1428A0"/>
</svg>
