<svg width="77" height="17" viewBox="0 0 77 17" fill="none" xmlns="http://www.w3.org/2000/svg">
<path d="M7.54894 2.92705C7.8483 2.00574 9.1517 2.00574 9.45106 2.92705L10.1839 5.18237C10.3177 5.5944 10.7017 5.87336 11.1349 5.87336L13.5063 5.87336C14.475 5.87336 14.8778 7.11297 14.0941 7.68237L12.1756 9.07624C11.8251 9.33088 11.6784 9.78225 11.8123 10.1943L12.5451 12.4496C12.8445 13.3709 11.79 14.137 11.0063 13.5676L9.08778 12.1738C8.7373 11.9191 8.2627 11.9191 7.91221 12.1738L5.99372 13.5676C5.21001 14.137 4.15553 13.3709 4.45488 12.4496L5.18768 10.1943C5.32155 9.78225 5.1749 9.33088 4.82441 9.07624L2.90592 7.68237C2.1222 7.11297 2.52498 5.87336 3.4937 5.87336L5.86509 5.87336C6.29832 5.87336 6.68227 5.5944 6.81614 5.18237L7.54894 2.92705Z" fill="#F9896B"/>
<path d="M22.5489 2.92705C22.8483 2.00574 24.1517 2.00574 24.4511 2.92705L25.1839 5.18237C25.3177 5.5944 25.7017 5.87336 26.1349 5.87336L28.5063 5.87336C29.475 5.87336 29.8778 7.11297 29.0941 7.68237L27.1756 9.07624C26.8251 9.33088 26.6784 9.78225 26.8123 10.1943L27.5451 12.4496C27.8445 13.3709 26.79 14.137 26.0063 13.5676L24.0878 12.1738C23.7373 11.9191 23.2627 11.9191 22.9122 12.1738L20.9937 13.5676C20.21 14.137 19.1555 13.3709 19.4549 12.4496L20.1877 10.1943C20.3216 9.78225 20.1749 9.33088 19.8244 9.07624L17.9059 7.68237C17.1222 7.11297 17.525 5.87336 18.4937 5.87336L20.8651 5.87336C21.2983 5.87336 21.6823 5.5944 21.8161 5.18237L22.5489 2.92705Z" fill="#F9896B"/>
<path d="M37.5489 2.92705C37.8483 2.00574 39.1517 2.00574 39.4511 2.92705L40.1839 5.18237C40.3177 5.5944 40.7017 5.87336 41.1349 5.87336L43.5063 5.87336C44.475 5.87336 44.8778 7.11297 44.0941 7.68237L42.1756 9.07624C41.8251 9.33088 41.6784 9.78225 41.8123 10.1943L42.5451 12.4496C42.8445 13.3709 41.79 14.137 41.0063 13.5676L39.0878 12.1738C38.7373 11.9191 38.2627 11.9191 37.9122 12.1738L35.9937 13.5676C35.21 14.137 34.1555 13.3709 34.4549 12.4496L35.1877 10.1943C35.3216 9.78225 35.1749 9.33088 34.8244 9.07624L32.9059 7.68237C32.1222 7.11297 32.525 5.87336 33.4937 5.87336L35.8651 5.87336C36.2983 5.87336 36.6823 5.5944 36.8161 5.18237L37.5489 2.92705Z" fill="#F9896B"/>
<path d="M52.5489 2.92705C52.8483 2.00574 54.1517 2.00574 54.4511 2.92705L55.1839 5.18237C55.3177 5.5944 55.7017 5.87336 56.1349 5.87336L58.5063 5.87336C59.475 5.87336 59.8778 7.11297 59.0941 7.68237L57.1756 9.07624C56.8251 9.33088 56.6784 9.78225 56.8123 10.1943L57.5451 12.4496C57.8445 13.3709 56.79 14.137 56.0063 13.5676L54.0878 12.1738C53.7373 11.9191 53.2627 11.9191 52.9122 12.1738L50.9937 13.5676C50.21 14.137 49.1555 13.3709 49.4549 12.4496L50.1877 10.1943C50.3216 9.78225 50.1749 9.33088 49.8244 9.07624L47.9059 7.68237C47.1222 7.11297 47.525 5.87336 48.4937 5.87336L50.8651 5.87336C51.2983 5.87336 51.6823 5.5944 51.8161 5.18237L52.5489 2.92705Z" fill="#F9896B"/>
<path d="M67.5489 2.92705C67.8483 2.00574 69.1517 2.00574 69.4511 2.92705L70.1839 5.18237C70.3177 5.5944 70.7017 5.87336 71.1349 5.87336L73.5063 5.87336C74.475 5.87336 74.8778 7.11297 74.0941 7.68237L72.1756 9.07624C71.8251 9.33088 71.6784 9.78225 71.8123 10.1943L72.5451 12.4496C72.8445 13.3709 71.79 14.137 71.0063 13.5676L69.0878 12.1738C68.7373 11.9191 68.2627 11.9191 67.9122 12.1738L65.9937 13.5676C65.21 14.137 64.1555 13.3709 64.4549 12.4496L65.1877 10.1943C65.3216 9.78225 65.1749 9.33088 64.8244 9.07624L62.9059 7.68237C62.1222 7.11297 62.525 5.87336 63.4937 5.87336L65.8651 5.87336C66.2983 5.87336 66.6823 5.5944 66.8161 5.18237L67.5489 2.92705Z" fill="#F9896B"/>
</svg>
